<svg xmlns="http://www.w3.org/2000/svg" width="900" height="190" viewBox="0 0 900 190">
  <defs>
    <linearGradient id="bg" x1="0" y1="0" x2="0" y2="1">
      <stop offset="0%" stop-color="#122b21"/>
      <stop offset="100%" stop-color="#0d1a14"/>
    </linearGradient>
    <linearGradient id="rG" x1="0" y1="0" x2="1" y2="0">
      <stop offset="0%" stop-color="#00E5A0"/>
      <stop offset="100%" stop-color="#7FFFD4"/>
    </linearGradient>
    <filter id="glow">
      <feGaussianBlur stdDeviation="2.5" result="b"/>
      <feMerge><feMergeNode in="b"/><feMergeNode in="SourceGraphic"/></feMerge>
    </filter>
  </defs>

  <rect width="900" height="190" rx="14" fill="url(#bg)" stroke="#1a3d2e" stroke-width="1"/>
  <line x1="225" y1="16" x2="225" y2="174" stroke="#1a3d2e" stroke-width="1"/>
  <line x1="450" y1="16" x2="450" y2="174" stroke="#1a3d2e" stroke-width="1"/>
  <line x1="675" y1="16" x2="675" y2="174" stroke="#1a3d2e" stroke-width="1"/>

  <g transform="translate(92,24)">
    <rect x="0"  y="8"  width="7" height="10" fill="#00E5A0" opacity="0.4"/>
    <rect x="10" y="2"  width="7" height="16" fill="#00E5A0" opacity="0.65"/>
    <rect x="20" y="-6" width="7" height="24" fill="#00E5A0" filter="url(#glow)"/>
    <rect x="30" y="3"  width="7" height="15" fill="#00E5A0" opacity="0.65"/>
    <rect x="40" y="9"  width="7" height="9"  fill="#00E5A0" opacity="0.4"/>
    <animate attributeName="opacity" values="0.8;1;0.8" dur="3s" repeatCount="indefinite"/>
  </g>
  <text x="112" y="100" text-anchor="middle" font-family="Segoe UI,Ubuntu,sans-serif" font-size="44" font-weight="800" fill="#00E5A0" filter="url(#glow)">158</text>
  <text x="112" y="124" text-anchor="middle" font-family="Segoe UI,Ubuntu,sans-serif" font-size="10" font-weight="700" fill="#4dbb97" letter-spacing="1.5">TOTAL CONTRIBUTIONS</text>
  <text x="112" y="140" text-anchor="middle" font-family="Segoe UI,Ubuntu,sans-serif" font-size="10" fill="#2d6a54">Aug 2024 – Present</text>

  <path d="M337,18 C337,18 342,24 341,29 C344,26 345,20 343,17 C347,23 346,30 342,34 C338,38 333,37 331,33 C328,29 329,22 333,18 Z" fill="#00E5A0" filter="url(#glow)">
    <animate attributeName="opacity" values="0.6;1;0.6" dur="1.5s" repeatCount="indefinite"/>
  </path>
  <text x="337" y="100" text-anchor="middle" font-family="Segoe UI,Ubuntu,sans-serif" font-size="44" font-weight="800" fill="#00E5A0" filter="url(#glow)">1</text>
  <text x="337" y="124" text-anchor="middle" font-family="Segoe UI,Ubuntu,sans-serif" font-size="10" font-weight="700" fill="#4dbb97" letter-spacing="1.5">CURRENT STREAK</text>
  <text x="337" y="140" text-anchor="middle" font-family="Segoe UI,Ubuntu,sans-serif" font-size="10" fill="#2d6a54">Aug 13, 2026</text>

  <path d="M567,18 L556,44 L563,44 L552,70 L575,40 L568,40 Z" fill="#00E5A0" filter="url(#glow)">
    <animate attributeName="opacity" values="0.5;1;0.5" dur="2s" repeatCount="indefinite"/>
  </path>
  <text x="562" y="100" text-anchor="middle" font-family="Segoe UI,Ubuntu,sans-serif" font-size="44" font-weight="800" fill="#00E5A0" filter="url(#glow)">3</text>
  <text x="562" y="124" text-anchor="middle" font-family="Segoe UI,Ubuntu,sans-serif" font-size="10" font-weight="700" fill="#4dbb97" letter-spacing="1.5">LONGEST STREAK</text>
  <text x="562" y="140" text-anchor="middle" font-family="Segoe UI,Ubuntu,sans-serif" font-size="10" fill="#2d6a54">May 16 – 18, 2025</text>

  <rect x="769" y="22" width="36" height="28" rx="3" fill="#122b21" stroke="#00E5A0" stroke-width="1.4" filter="url(#glow)"/>
  <rect x="769" y="16" width="16" height="8" rx="2" fill="#00E5A0"/>
  <rect x="775" y="32" width="24" height="2" rx="1" fill="#1a3d2e"/>
  <rect x="775" y="38" width="18" height="2" rx="1" fill="#1a3d2e"/>
  <rect x="775" y="44" width="20" height="2" rx="1" fill="#1a3d2e"/>
  <text x="787" y="100" text-anchor="middle" font-family="Segoe UI,Ubuntu,sans-serif" font-size="44" font-weight="800" fill="#00E5A0" filter="url(#glow)">10</text>
  <text x="787" y="124" text-anchor="middle" font-family="Segoe UI,Ubuntu,sans-serif" font-size="10" font-weight="700" fill="#4dbb97" letter-spacing="1.5">PUBLIC REPOS</text>
  <text x="787" y="140" text-anchor="middle" font-family="Segoe UI,Ubuntu,sans-serif" font-size="10" fill="#2d6a54">github.com/zona-0</text>
</svg>
